<svg xmlns="http://www.w3.org/2000/svg" xmlns:xlink="http://www.w3.org/1999/xlink" version="1.1" id="Layer_1" x="0px" y="0px" width="100%" viewBox="0 0 2000 1500" enable-background="new 0 0 2000 1500" xml:space="preserve">
    <path fill="#EE3E38" opacity="1.000000" stroke="none" d=" M1202.944458,1242.098877   C1199.616211,1242.071411 1196.288086,1242.043945 1192.040771,1241.984375   C1177.680542,1242.227661 1164.239380,1242.503052 1150.798218,1242.778564   C1141.401733,1243.186890 1131.985474,1243.338135 1122.613525,1244.063965   C1108.572144,1245.151367 1094.559570,1246.618408 1080.539185,1247.969604   C1070.455200,1248.941406 1060.374512,1250.812134 1050.299438,1250.764282   C1040.592529,1250.718140 1030.894653,1248.725464 1021.193115,1247.584473   C1019.569031,1247.393677 1017.946899,1247.185913 1015.506531,1246.897461   C1001.649597,1246.806274 988.609985,1246.803711 975.570435,1246.801025   C963.039795,1247.535034 950.517273,1248.483154 937.976807,1248.956299   C915.613770,1249.800293 893.234802,1250.232300 870.875427,1251.151245   C866.921936,1251.313721 865.401489,1249.448853 863.990662,1246.539917   C863.037659,1244.574951 861.914001,1242.692627 860.266663,1239.673584   C857.656189,1242.543335 855.755432,1244.600830 853.890381,1246.690186   C850.838928,1250.108643 847.306824,1252.289795 842.654846,1250.224121   C837.503174,1247.936890 832.458618,1245.404175 827.401184,1242.909668   C817.891785,1238.219238 816.185303,1238.825073 808.355652,1246.067261   C803.974731,1250.119629 797.953552,1251.492798 792.190796,1249.493042   C786.298096,1247.448120 780.831848,1244.205566 775.073364,1241.733154   C770.199219,1239.640259 765.317566,1237.158569 760.184448,1236.164917   C751.091675,1234.405151 745.945190,1240.793701 741.062805,1247.086182   C740.370361,1247.978516 739.651672,1248.850586 738.099854,1250.786621   C735.185486,1236.853394 732.468079,1223.862061 729.750671,1210.870605   C729.081787,1210.838623 728.412903,1210.806641 727.743958,1210.774536   C726.825134,1212.333618 725.920837,1213.901367 724.984558,1215.449829   C722.388123,1219.744141 722.586548,1225.897827 716.334473,1227.875366   C715.456055,1228.153076 715.034973,1231.114136 715.070557,1232.819214   C715.194031,1238.731934 715.612244,1244.638672 715.931885,1250.808838   C710.732361,1251.075073 709.746216,1246.803101 709.120544,1243.851685   C706.703674,1232.450317 705.066345,1220.886475 702.916687,1209.424683   C701.944153,1204.239502 700.451721,1199.151733 699.212524,1194.090454   C693.962952,1194.142578 693.505249,1198.085693 692.288025,1200.798950   C691.184082,1203.259399 692.460449,1205.329468 695.108337,1206.753174   C696.177551,1207.327881 696.735291,1209.434937 696.929016,1210.922363   C697.227905,1213.217041 697.006714,1215.578613 697.018066,1217.911743   C697.049683,1224.448486 695.867554,1225.465088 688.712158,1223.981079   C688.469299,1228.646240 688.602661,1233.217041 687.888672,1237.651245   C687.264221,1241.529175 686.392517,1245.701782 684.344238,1248.927734   C682.013184,1252.598633 678.383667,1251.971191 675.968567,1248.267700   C673.850891,1245.020386 671.877441,1241.679443 669.806641,1238.401123   C667.458130,1234.683472 664.644836,1233.570923 660.753479,1237.557007   C655.996399,1230.272461 661.910339,1222.015015 657.901855,1213.272095   C652.891174,1219.558228 648.739319,1224.766968 644.568359,1229.999634   C616.186096,1214.128296 585.449341,1208.368530 552.772583,1206.845459   C527.932434,1206.485107 503.927917,1206.281128 479.923370,1206.077148   C456.238464,1206.276001 433.082672,1202.982666 410.725739,1195.037842   C393.234985,1188.822266 376.791534,1180.529785 362.721100,1168.204712   C353.791321,1160.382568 345.057465,1152.319092 336.547760,1144.043091   C332.590363,1140.194214 328.242676,1136.059326 326.181549,1131.165527   C324.533386,1127.252319 325.477600,1121.881348 326.339294,1117.361084   C327.691803,1110.265869 330.362640,1103.415527 331.608612,1096.309570   C332.106171,1093.471924 331.081696,1089.664185 329.368530,1087.298828   C326.436676,1083.251221 324.837860,1079.099487 325.019440,1074.242432   C325.668182,1056.889893 323.081665,1039.896484 320.204895,1022.841797   C317.606964,1007.440063 316.438995,991.857971 320.003510,976.273499   C320.542084,973.918579 318.719482,971.045410 318.068054,968.392578   C315.650208,958.546631 316.035889,948.784424 318.364349,938.921082   C321.390015,926.104126 325.479187,913.395630 323.967499,899.908997   C323.754120,898.005310 323.216705,896.048218 323.461609,894.199646   C324.211853,888.536133 327.319183,886.038696 333.130249,886.000610   C333.630127,885.997375 334.130096,886.001526 334.630005,886.000061   C343.980347,885.972351 345.210022,884.327576 346.094940,874.744019   C346.730347,867.862671 348.215912,860.998962 349.960876,854.293579   C353.733917,839.795105 363.417328,830.818848 377.351685,825.894043   C381.896179,824.287964 386.317535,822.165405 390.476593,819.734131   C391.805542,818.957153 392.995697,816.282776 392.745483,814.716858   C389.651825,795.357544 385.874420,776.099854 383.137726,756.694092   C381.599091,745.783813 380.562744,734.577026 381.269684,723.630981   C382.223846,708.856445 385.100433,694.208008 387.064514,679.493713   C387.247589,678.122192 387.336945,676.153076 386.555603,675.340027   C383.335754,671.989624 380.262909,667.831360 376.220947,666.069885   C366.412567,661.795593 362.696777,653.620544 359.944916,644.432068   C359.165405,641.829285 358.634583,639.151978 357.982788,636.480347   C357.456055,636.653076 357.132080,636.694946 356.880005,636.852051   C354.751831,638.179321 352.636810,639.527527 350.517822,640.869385   C350.011963,638.412659 349.385498,635.973755 349.020020,633.496277   C346.787964,618.366028 345.525146,603.024658 342.215424,588.136902   C336.870392,564.094116 329.826263,540.433350 324.210693,516.444763   C320.775208,501.768982 317.947327,486.867615 316.174774,471.910156   C314.528442,458.017822 313.314301,443.821625 314.306885,429.930481   C315.680664,410.704407 324.787537,394.865387 340.338867,382.781525   C357.725769,369.271332 378.507202,364.607056 398.984406,358.883667   C409.774963,355.867706 420.442932,353.102570 430.313354,346.750519   C437.738556,341.972137 447.492340,340.669891 456.329437,338.259888   C470.933655,334.277069 485.564392,330.343658 500.313080,326.950836   C517.598694,322.974426 534.988770,319.426178 552.397339,316.018158   C565.608337,313.431854 578.878296,311.075378 592.197632,309.135651   C604.188110,307.389526 616.278381,306.321716 628.330017,305.004303   C643.818542,303.311188 659.304382,301.586823 674.808105,300.043671   C680.713379,299.455872 686.661865,299.255493 692.596130,299.012848   C709.954773,298.302979 727.317078,297.683350 744.676025,296.980255   C751.110229,296.719635 757.539001,296.325378 764.901245,296.049652   C778.317810,295.809845 790.803345,295.512451 803.288879,295.215088   C816.574707,295.150238 829.860474,295.085388 843.981079,295.263031   C853.914246,295.655304 863.012634,295.805084 872.110962,295.954895   C932.004517,296.975525 991.898071,297.996185 1052.576050,298.872589   C1056.001953,298.987701 1058.641602,299.449036 1061.285400,299.474823   C1085.066040,299.706970 1108.847290,299.879913 1132.628906,300.002502   C1134.246582,300.010834 1135.867065,299.472229 1137.486328,299.187988   C1150.252441,297.448792 1163.011841,295.656860 1175.787231,293.989105   C1184.200073,292.890869 1192.653076,292.094574 1201.057861,290.941833   C1212.328613,289.395966 1223.558228,287.551086 1234.827515,285.993347   C1245.315796,284.543671 1255.845093,283.391754 1266.333740,281.944214   C1277.454102,280.409485 1288.531250,278.558258 1299.657959,277.075439   C1308.722290,275.867462 1317.833130,275.012421 1326.920776,273.976776   C1338.314087,272.678375 1349.697021,271.283783 1361.098999,270.067871   C1368.783691,269.248413 1376.480957,268.418274 1384.194824,268.024872   C1406.320190,266.896576 1428.450317,265.801605 1450.590820,265.051971   C1468.451172,264.447266 1485.371094,259.085449 1502.694946,255.709610   C1513.850952,253.535690 1525.195190,251.794418 1536.526001,251.192902   C1549.608521,250.498398 1562.826782,250.083542 1575.716309,253.902771   C1590.481934,258.277924 1603.777832,265.078339 1615.713501,275.002319   C1635.821899,291.721741 1650.470581,312.618134 1661.141357,335.976196   C1667.222656,349.287659 1670.358032,364.049438 1673.890991,378.387054   C1676.675049,389.686554 1678.207031,401.310303 1679.969727,412.839783   C1680.985474,419.483948 1681.540527,426.214783 1681.978882,432.927765   C1683.087158,449.905579 1684.155273,466.888458 1684.971069,483.882172   C1685.812500,501.408783 1686.696655,518.946167 1686.915161,536.486816   C1687.241089,562.646423 1687.098389,588.813538 1686.953979,614.976379   C1686.891846,626.245178 1686.326782,637.511230 1685.964722,649.615723   C1685.651489,664.994690 1685.363647,679.536499 1685.075684,694.078308   C1685.045288,704.610413 1685.014893,715.142456 1684.885742,726.513672   C1684.536865,737.942200 1684.286743,748.531677 1684.036377,759.121155   C1684.024170,764.605591 1684.111206,770.092468 1683.978760,775.574036   C1683.715210,786.480591 1683.440308,797.389038 1682.967773,808.287903   C1682.425659,820.795410 1681.512939,833.287598 1681.032593,845.796875   C1680.239868,866.438232 1679.679688,887.088501 1678.991699,907.734009   C1678.694702,916.645874 1678.323120,925.555115 1677.819580,935.305969   C1677.438354,963.150330 1677.223145,990.154236 1677.008057,1017.158203   C1676.671387,1030.423340 1676.997925,1043.746582 1675.841675,1056.939941   C1674.126831,1076.503662 1671.990845,1096.077148 1668.853149,1115.455444   C1666.094482,1132.493042 1662.133179,1149.375488 1657.848511,1166.107666   C1656.072998,1173.041260 1652.282227,1179.513306 1648.947266,1185.956787   C1648.045166,1187.699341 1645.629517,1189.022949 1643.622437,1189.773926   C1619.052979,1198.965942 1594.453369,1208.078979 1569.811157,1217.074585   C1557.872192,1221.433105 1545.996826,1226.110596 1533.777100,1229.508545   C1523.995117,1232.228638 1513.767822,1233.446167 1503.681152,1234.947388   C1491.216309,1236.802368 1478.698975,1238.313354 1466.190552,1239.862671   C1461.781494,1240.408569 1457.337769,1240.731445 1452.899902,1240.975220   C1445.304810,1241.392700 1437.680298,1241.409668 1430.106079,1242.046631   C1391.283081,1245.310791 1352.384399,1243.553833 1312.669434,1243.864746   C1299.509766,1243.509888 1287.200439,1243.278564 1274.891113,1243.047119   C1267.346802,1243.026489 1259.802490,1243.005981 1251.434326,1243.048340   C1234.721680,1242.773682 1218.833130,1242.436279 1202.944458,1242.098877  M997.500061,356.874542   C850.591553,356.874542 703.683044,356.874542 556.833496,356.874542   C556.484985,358.234222 556.265991,358.859528 556.168091,359.503235   C546.863464,420.693878 542.186462,482.298920 540.303040,544.111938   C538.129639,615.442810 539.340820,686.736511 543.796875,757.976257   C547.479614,816.852539 553.408142,875.481140 561.807251,933.875366   C571.767517,1003.123108 585.343872,1071.638550 602.395325,1139.483032   C603.458069,1143.711792 604.878662,1145.257935 609.545227,1145.251221   C721.372131,1145.089478 833.199402,1145.125244 945.026550,1145.125244   C946.818542,1145.125244 948.610535,1145.125244 950.818665,1145.125244   C945.260803,1068.824097 942.110229,992.996704 943.104858,916.884338   C944.237549,916.603821 945.170715,916.278198 946.130249,916.148743   C975.827576,912.143127 1005.585999,908.545959 1035.215210,904.089661   C1106.050659,893.435974 1175.927124,878.206665 1244.902710,858.882263   C1317.399170,838.571472 1388.177734,813.438354 1457.076904,783.049561   C1459.916626,781.796997 1461.919922,780.832764 1461.813232,776.761292   C1459.671021,694.942444 1454.814331,613.335205 1444.204590,532.120728   C1436.737793,474.964355 1426.547607,418.338135 1412.781738,362.352844   C1411.703613,357.967865 1409.993408,356.752014 1405.477539,356.756836   C1269.818481,356.901489 1134.159302,356.874542 997.500061,356.874542  z"/>
    <path fill="#F7B3B0" opacity="1.000000" stroke="none" d=" M1137.065186,299.141174   C1135.867065,299.472229 1134.246582,300.010834 1132.628906,300.002502   C1108.847290,299.879913 1085.066040,299.706970 1061.285400,299.474823   C1058.641602,299.449036 1056.001953,298.987701 1053.083618,298.990234   C1080.752441,299.199524 1108.698242,299.146942 1137.065186,299.141174  z"/>
    <path fill="#F48A86" opacity="1.000000" stroke="none" d=" M1677.410767,1016.957031   C1677.223145,990.154236 1677.438354,963.150330 1677.728516,935.795044   C1677.807007,962.547852 1677.810303,989.651855 1677.410767,1016.957031  z"/>
    <path fill="#F7ACA9" opacity="1.000000" stroke="none" d=" M480.129578,1206.467041   C503.927917,1206.281128 527.932434,1206.485107 552.310425,1206.754150   C528.567749,1206.831665 504.451752,1206.844360 480.129578,1206.467041  z"/>
    <path fill="#F7AFAC" opacity="1.000000" stroke="none" d=" M1203.156982,1242.481934   C1218.833130,1242.436279 1234.721680,1242.773682 1250.927734,1242.943237   C1235.286499,1242.805176 1219.328125,1242.835083 1203.156982,1242.481934  z"/>
    <path fill="#F7ABA8" opacity="1.000000" stroke="none" d=" M1685.466064,693.872437   C1685.363647,679.536499 1685.651489,664.994690 1685.861572,650.125183   C1685.808105,664.420532 1685.832275,679.043518 1685.466064,693.872437  z"/>
    <path fill="#F7AFAC" opacity="1.000000" stroke="none" d=" M1151.190918,1242.811646   C1164.239380,1242.503052 1177.680542,1242.227661 1191.588867,1242.025146   C1190.547241,1242.411865 1189.038574,1242.995117 1187.529541,1242.996582   C1175.547485,1243.008423 1163.565552,1242.909546 1151.190918,1242.811646  z"/>
    <path fill="#F6A6A3" opacity="1.000000" stroke="none" d=" M975.986084,1246.834473   C988.609985,1246.803711 1001.649597,1246.806274 1015.041870,1246.803955   C1002.396973,1246.822021 989.399292,1246.844971 975.986084,1246.834473  z"/>
    <path fill="#F59996" opacity="1.000000" stroke="none" d=" M802.892090,295.176758   C790.803345,295.512451 778.317810,295.809845 765.362305,296.029724   C766.373962,295.617126 767.855164,294.995361 769.337463,294.992645   C780.389954,294.972321 791.442627,295.074585 802.892090,295.176758  z"/>
    <path fill="#F69D9A" opacity="1.000000" stroke="none" d=" M1275.093262,1243.443359   C1287.200439,1243.278564 1299.509766,1243.509888 1312.179199,1243.773926   C1300.124512,1243.817505 1287.709961,1243.828613 1275.093262,1243.443359  z"/>
    <path fill="#F59996" opacity="1.000000" stroke="none" d=" M1684.435059,758.920288   C1684.286743,748.531677 1684.536865,737.942200 1684.788696,727.016907   C1684.804688,737.360535 1684.819092,748.039917 1684.435059,758.920288  z"/>
    <path fill="#F16863" opacity="1.000000" stroke="none" d=" M871.879883,295.579590   C863.012634,295.805084 853.914246,295.655304 844.449707,295.338562   C853.271912,295.182495 862.460327,295.193390 871.879883,295.579590  z"/>
    <path fill="#FFFFFF" opacity="1.000000" stroke="none" d=" M998.000122,356.874542   C1134.159302,356.874542 1269.818481,356.901489 1405.477539,356.756836   C1409.993408,356.752014 1411.703613,357.967865 1412.781738,362.352844   C1426.547607,418.338135 1436.737793,474.964355 1444.204590,532.120728   C1454.814331,613.335205 1459.671021,694.942444 1461.813232,776.761292   C1461.919922,780.832764 1459.916626,781.796997 1457.076904,783.049561   C1388.177734,813.438354 1317.399170,838.571472 1244.902710,858.882263   C1175.927124,878.206665 1106.050659,893.435974 1035.215210,904.089661   C1005.585999,908.545959 975.827576,912.143127 946.130249,916.148743   C945.170715,916.278198 944.237549,916.603821 943.104858,916.884338   C942.110229,992.996704 945.260803,1068.824097 950.818665,1145.125244   C948.610535,1145.125244 946.818542,1145.125244 945.026550,1145.125244   C833.199402,1145.125244 721.372131,1145.089478 609.545227,1145.251221   C604.878662,1145.257935 603.458069,1143.711792 602.395325,1139.483032   C585.343872,1071.638550 571.767517,1003.123108 561.807251,933.875366   C553.408142,875.481140 547.479614,816.852539 543.796875,757.976257   C539.340820,686.736511 538.129639,615.442810 540.303040,544.111938   C542.186462,482.298920 546.863464,420.693878 556.168091,359.503235   C556.265991,358.859528 556.484985,358.234222 556.833496,356.874542   C703.683044,356.874542 850.591553,356.874542 998.000122,356.874542  M1070.067871,777.600220   C1083.189087,771.520569 1096.268433,765.347900 1109.460938,759.427246   C1112.729248,757.960510 1113.308838,756.072937 1112.607056,752.806213   C1111.244995,746.465759 1110.328857,740.031006 1109.124146,733.654907   C1090.039062,632.648438 1046.784790,543.166199 980.748840,464.557953   C979.968140,463.628632 978.995483,462.860535 977.526306,461.457397   C959.150940,576.620361 949.279175,691.727539 944.619812,807.696594   C987.856506,802.315552 1029.337524,793.193054 1070.067871,777.600220  z"/>
    <path fill="#EE3F39" opacity="1.000000" stroke="none" d=" M1069.706787,777.743164   C1029.337524,793.193054 987.856506,802.315552 944.619812,807.696594   C949.279175,691.727539 959.150940,576.620361 977.526306,461.457397   C978.995483,462.860535 979.968140,463.628632 980.748840,464.557953   C1046.784790,543.166199 1090.039062,632.648438 1109.124146,733.654907   C1110.328857,740.031006 1111.244995,746.465759 1112.607056,752.806213   C1113.308838,756.072937 1112.729248,757.960510 1109.460938,759.427246   C1096.268433,765.347900 1083.189087,771.520569 1069.706787,777.743164  z"/>
    </svg>